#!OML:ASF H:\ManfredETheater\Project 1\Capture day 1\Session 1\subject.ASF
:FULLY-SPECIFIED
:DEGREES
122
root -1.05547 15.7376 16.7831 4.35979 -37.8632 3.65709
lowerback 12.4424 -0.0555042 1.10001
upperback 0.290212 0.156258 1.2711
thorax -6.68361 0.0556925 0.692261
lowerneck -18.1697 -3.78387 -4.91638
upperneck 9.90054 -4.14706 1.88301
head 6.09147 -2.05098 0.958441
rclavicle -1.28812e-013 2.22639e-014
rhumerus -46.1368 11.59 -97.2617
rradius 104.485
rwrist -14.8274
rhand -26.3608 13.4224
rfingers 7.12502
rthumb 0.197233 -16.5572
lclavicle -1.28812e-013 2.22639e-014
lhumerus -63.6579 -12.9292 98.0102
lradius 97.4968
lwrist 13.4044
lhand -21.5244 -11.9562
lfingers 7.12502
lthumb 4.86803 17.9679
rfemur -17.7585 -10.8688 36.8096
rtibia 56.0984
rfoot -27.0793 -11.6842
rtoes -16.9991
lfemur -50.217 4.0092 -7.82949
ltibia 90.927
lfoot -9.52107 -1.01793
ltoes -6.96964
123
root -1.37364 15.8142 17.2146 4.82334 -38.0378 2.95881
lowerback 11.8948 0.195784 1.7524
upperback 0.206082 0.569216 1.24817
thorax -6.46012 0.237707 0.227383
lowerneck -18.2543 -4.05278 -5.08599
upperneck 10.1244 -4.50317 2.1532
head 6.19945 -2.20761 1.03045
rclavicle 7.09661e-014 -4.77083e-015
rhumerus -46.2989 12.5343 -97.545
rradius 107.326
rwrist -13.6401
rhand -25.8801 13.8543
rfingers 7.12502
rthumb 0.661509 -16.1244
lclavicle 7.09661e-014 -4.77083e-015
lhumerus -65.211 -13.5263 97.9627
lradius 98.8518
lwrist 14.1549
lhand -21.3427 -11.7372
lfingers 7.12502
lthumb 5.04343 18.1828
rfemur -15.7448 -10.9597 36.4873
rtibia 55.8262
rfoot -24.9519 -9.54756
rtoes -20.2653
lfemur -51.9672 3.9234 -8.32128
ltibia 87.7776
lfoot -10.2822 -0.965735
ltoes -8.14433
124
root -1.69576 15.8969 17.6485 5.23054 -38.1781 2.29432
lowerback 11.3671 0.420965 2.37733
upperback 0.135613 0.93603 1.2144
thorax -6.22448 0.399618 -0.2188
lowerneck -18.3412 -4.30054 -5.24286
upperneck 10.3246 -4.83609 2.4322
head 6.3011 -2.3511 1.1053
rclavicle -5.96354e-016 -1.66979e-014
rhumerus -46.5332 13.4378 -97.7644
rradius 110.052
rwrist -12.4224
rhand -25.3115 14.2886
rfingers 7.12502
rthumb 1.21069 -15.6877
lclavicle -5.96354e-016 -1.66979e-014
lhumerus -66.6901 -13.9213 97.8328
lradius 100.104
lwrist 14.6569
lhand -21.2395 -11.544
lfingers 7.12502
lthumb 5.1431 18.3736
rfemur -13.8863 -10.9587 36.0773
rtibia 55.6628
rfoot -22.0618 -7.03026
rtoes -22.7529
lfemur -53.3292 3.74057 -8.84019
ltibia 84.1462
lfoot -10.874 -1.09743
ltoes -9.28221
125
root -2.02142 15.9819 18.0847 5.53113 -38.2796 1.69832
lowerback 10.8746 0.615112 2.9297
upperback 0.0913605 1.24589 1.17719
thorax -5.97557 0.53767 -0.612741
lowerneck -18.4337 -4.52051 -5.39227
upperneck 10.5055 -5.13325 2.70623
head 6.39739 -2.4768 1.18085
rclavicle -1.06747e-013 6.36111e-015
rhumerus -46.8429 14.2871 -97.9166
rradius 112.655
rwrist -11.2973
rhand -24.6791 14.7211
rfingers 7.12502
rthumb 1.82145 -15.2508
lclavicle -1.06747e-013 6.36111e-015
lhumerus -68.0878 -14.1004 97.6344
lradius 101.233
lwrist 14.9181
lhand -21.2094 -11.3862
lfingers 7.12502
lthumb 5.17217 18.5306
rfemur -12.1739 -10.8741 35.5671
rtibia 55.6319
rfoot -18.3708 -4.30395
rtoes -24.2889
lfemur -54.2802 3.46189 -9.39168
ltibia 80.0951
lfoot -11.2532 -1.48255
ltoes -10.5591
126
root -2.3501 16.0662 18.5218 5.66183 -38.3228 1.21008
lowerback 10.4676 0.767788 3.35342
upperback 0.0797322 1.48234 1.1461
thorax -5.74022 0.644966 -0.913025
lowerneck -18.5474 -4.70426 -5.52052
upperneck 10.6878 -5.38089 2.94166
head 6.49528 -2.58037 1.24539
rclavicle 5.46658e-014 6.36111e-015
rhumerus -47.2147 15.067 -97.9976
rradius 115.099
rwrist -10.3671
rhand -24.0307 15.1485
rfingers 7.12502
rthumb 2.44773 -14.8172
lclavicle 5.46658e-014 6.36111e-015
lhumerus -69.4029 -14.0617 97.3892
lradius 102.238
lwrist 15.0014
lhand -21.248 -11.2732
lfingers 7.12502
lthumb 5.13493 18.6445
rfemur -10.5861 -10.7297 34.952
rtibia 55.7504
rfoot -13.9512 -1.60872
rtoes -24.5353
lfemur -54.801 3.07938 -9.98798
ltibia 75.6916
lfoot -11.3273 -2.17945
ltoes -11.9884
127
root -2.68119 16.1459 18.9597 5.60212 -38.3418 0.798282
lowerback 10.1873 0.886861 3.65474
upperback 0.109392 1.66181 1.13846
thorax -5.53578 0.728735 -1.11072
lowerneck -18.6798 -4.85043 -5.63473
upperneck 10.8803 -5.57394 3.1291
head 6.59637 -2.6606 1.29773
rclavicle 2.44505e-014 -2.70347e-014
rhumerus -47.6296 15.7608 -97.9988
rradius 117.342
rwrist -9.70036
rhand -23.4254 15.5463
rfingers 7.12502
rthumb 3.03226 -14.4119
lclavicle 2.44505e-014 -2.70347e-014
lhumerus -70.6374 -13.8222 97.1256
lradius 103.122
lwrist 14.9964
lhand -21.3134 -11.1972
lfingers 7.12502
lthumb 5.07174 18.7221
rfemur -9.06652 -10.4919 34.2823
rtibia 56.0334
rfoot -9.07275 0.752227
rtoes -23.1914
lfemur -54.8778 2.64919 -10.5959
ltibia 71.0266
lfoot -10.9848 -3.22671
ltoes -13.6942
128
root -3.01362 16.2174 19.3974 5.36473 -38.3527 0.485405
lowerback 10.012 0.979417 3.81297
upperback 0.172515 1.79268 1.15133
thorax -5.36065 0.793011 -1.20009
lowerneck -18.8315 -4.95932 -5.73171
upperneck 11.0896 -5.71198 3.2597
head 6.70215 -2.71807 1.33464
rclavicle 4.88016e-014 -2.78299e-014
rhumerus -48.0559 16.3522 -97.9093
rradius 119.34
rwrist -9.34757
rhand -22.9096 15.8859
rfingers 7.12502
rthumb 3.53038 -14.0647
lclavicle 4.88016e-014 -2.78299e-014
lhumerus -71.7861 -13.4126 96.8672
lradius 103.899
lwrist 14.9711
lhand -21.4005 -11.151
lfingers 7.12502
lthumb 4.9876 18.7703
rfemur -7.64279 -10.1507 33.575
rtibia 56.5144
rfoot -4.2325 2.48437
rtoes -20.6283
lfemur -54.5786 2.20244 -11.2394
ltibia 66.2075
lfoot -10.1254 -4.58715
ltoes -15.5686
129
root -3.34606 16.2781 19.8344 4.96832 -38.35 0.278114
lowerback 9.92804 1.04411 3.83124
upperback 0.258682 1.87468 1.18418
thorax -5.21951 0.836808 -1.18441
lowerneck -18.9956 -5.03462 -5.81984
upperneck 11.3182 -5.79829 3.33583
head 6.81239 -2.75477 1.35808
rclavicle -7.67309e-014 -1.51076e-014
rhumerus -48.4839 16.8333 -97.7291
rradius 121.059
rwrist -9.32453
rhand -22.5269 16.155
rfingers 7.12502
rthumb 3.89997 -13.789
lclavicle -7.67309e-014 -1.51076e-014
lhumerus -72.8441 -12.8688 96.6339
lradius 104.58
lwrist 14.9841
lhand -21.4929 -11.1356
lfingers 7.12502
lthumb 4.89846 18.7877
rfemur -6.33984 -9.74108 32.8451
rtibia 57.2326
rfoot -0.0297433 3.51133
rtoes -17.5218
lfemur -53.9781 1.74941 -11.9386
ltibia 61.3612
lfoot -8.69606 -6.16671
ltoes -17.4423
130
root -3.6777 16.3253 20.2698 4.46735 -38.3457 0.112869
lowerback 9.93479 1.08579 3.76214
upperback 0.358933 1.92151 1.24601
thorax -5.12013 0.864915 -1.08654
lowerneck -19.1687 -5.07688 -5.89117
upperneck 11.5689 -5.83548 3.35683
head 6.92714 -2.77194 1.36642
rclavicle 5.17834e-014 6.36111e-015
rhumerus -48.9036 17.188 -97.4536
rradius 122.466
rwrist -9.59087
rhand -22.2743 16.3524
rfingers 7.12502
rthumb 4.14387 -13.5871
lclavicle 5.17834e-014 6.36111e-015
lhumerus -73.8096 -12.2282 96.4397
lradius 105.181
lwrist 15.0573
lhand -21.5628 -11.1393
lfingers 7.12502
lthumb 4.83098 18.7857
rfemur -5.1837 -9.27353 32.164
rtibia 58.2488
rfoot 3.07296 3.77734
rtoes -14.6341
lfemur -53.1548 1.34315 -12.6604
ltibia 56.6582
lfoot -6.7577 -7.8179
ltoes -19.112
131
root -4.00808 16.3577 20.7036 3.9214 -38.3433 -0.0657458
lowerback 10.008 1.10667 3.66349
upperback 0.465381 1.94185 1.3408
thorax -5.0551 0.880109 -0.935656
lowerneck -19.3363 -5.09179 -5.95034
upperneck 11.8308 -5.83246 3.33613
head 7.0414 -2.77324 1.36415
rclavicle -1.94809e-014 7.95139e-015
rhumerus -49.307 17.4 -97.088
rradius 123.535
rwrist -10.0578
rhand -22.1282 16.4818
rfingers 7.12502
rthumb 4.28501 -13.4549
lclavicle -1.94809e-014 7.95139e-015
lhumerus -74.6752 -11.5333 96.2938
lradius 105.714
lwrist 15.1836
lhand -21.6042 -11.1486
lfingers 7.12502
lthumb 4.79095 18.7772
rfemur -4.20533 -8.78168 31.5793
rtibia 59.5783
rfoot 4.97297 3.25362
rtoes -12.472
lfemur -52.182 0.998301 -13.3699
ltibia 52.2473
lfoot -4.42411 -9.33668
ltoes -20.3727
132
root -4.33562 16.3669 21.137 3.39416 -38.3666 -0.323576
lowerback 10.121 1.11262 3.60172
upperback 0.573621 1.94983 1.4717
thorax -5.01121 0.887995 -0.767067
lowerneck -19.4969 -5.07837 -5.98649
upperneck 12.0991 -5.79162 3.28006
head 7.15331 -2.75892 1.35146
rclavicle 3.17062e-014 1.11319e-014
rhumerus -49.6837 17.4559 -96.6466
rradius 124.237
rwrist -10.6032
rhand -22.0485 16.5501
rfingers 7.12502
rthumb 4.36192 -13.385
lclavicle 3.17062e-014 1.11319e-014
lhumerus -75.4321 -10.8119 96.2027
lradius 106.187
lwrist 15.3244
lhand -21.615 -11.1709
lfingers 7.12502
lthumb 4.78057 18.7551
rfemur -3.45357 -8.28373 31.1311
rtibia 61.2697
rfoot 5.75158 1.9759
rtoes -11.2854
lfemur -51.1705 0.751535 -14.0282
ltibia 48.3241
lfoot -1.86842 -10.4816
ltoes -21.1115
133
root -4.66309 16.3704 21.5684 2.94169 -38.422 -0.70028
lowerback 10.2389 1.10496 3.62436
upperback 0.678863 1.95094 1.63545
thorax -4.97193 0.890509 -0.610694
lowerneck -19.635 -5.04076 -5.99951
upperneck 12.352 -5.72204 3.20684
head 7.25422 -2.73186 1.33368
rclavicle -4.33351e-014 -1.66979e-014
rhumerus -50.0361 17.3473 -96.1532
rradius 124.568
rwrist -11.1059
rhand -22.0146 16.5754
rfingers 7.12502
rthumb 4.39463 -13.359
lclavicle -4.33351e-014 -1.66979e-014
lhumerus -76.0665 -10.0952 96.1703
lradius 106.608
lwrist 15.4418
lhand -21.5976 -11.1941
lfingers 7.12502
lthumb 4.79736 18.7316
rfemur -2.95112 -7.79576 30.8326
rtibia 63.2642
rfoot 5.72862 -0.00176254
rtoes -10.8944
lfemur -50.1209 0.624117 -14.6122
ltibia 45.0007
lfoot 0.615548 -11.1124
ltoes -21.6112
134
root -4.98858 16.3602 21.9981 2.58985 -38.5201 -1.21948
lowerback 10.3578 1.08476 3.756
upperback 0.778256 1.94933 1.82932
thorax -4.93687 0.889201 -0.48361
lowerneck -19.7515 -4.97855 -5.97857
upperneck 12.5848 -5.62697 3.12203
head 7.34268 -2.69255 1.31057
rclavicle 6.15239e-014 -2.46493e-014
rhumerus -50.3679 17.0664 -95.635
rradius 124.529
rwrist -11.4612
rhand -21.9734 16.5373
rfingers 7.12502
rthumb 4.43442 -13.3963
lclavicle 6.15239e-014 -2.46493e-014
lhumerus -76.5687 -9.40153 96.2005
lradius 106.978
lwrist 15.4886
lhand -21.5596 -11.2243
lfingers 7.12502
lthumb 4.83402 18.7005
rfemur -2.74407 -7.33209 30.6788
rtibia 65.57
rfoot 5.23815 -2.52661
rtoes -10.9458
lfemur -49.127 0.614448 -15.0987
ltibia 42.4319
lfoot 2.84081 -11.2041
ltoes -21.8315
